<svg width="69" height="68" viewBox="0 0 69 68" fill="none" xmlns="http://www.w3.org/2000/svg">
<path d="M55.1261 6.75917C48.3103 1.9559 38.8507 4.9547 34.9728 7.05452C33.3481 5.37517 29.2643 1.8584 25.9273 1.22605C22.5903 0.593688 19.4463 1.43696 18.2914 1.93765C23.7301 2.64955 29.5342 6.34261 25.3315 5.7925C21.9694 5.35242 18.6519 7.52558 17.4134 8.66717C12.8647 8.07176 8.79797 9.82091 7.33318 10.7699C6.08667 10.6882 4.47733 10.6894 8.01211 11.3477C11.5469 12.0059 13.294 13.2613 13.7257 13.8067C11.4031 16.1915 10.7555 15.3734 4.59201 22.1444C-0.338798 27.5612 0.857881 41.1297 2.07257 47.2369L4.40611 38.9868C3.73671 49.8992 7.77162 57.5162 8.36375 54.9048C8.83746 52.8157 9.90264 42.0586 9.90264 40.5098C9.90264 38.1364 9.81665 37.0367 10.1988 37.3947C10.8979 37.3947 9.81665 41.1032 9.81665 45.4051C9.69335 47.2564 9.45473 52.6667 10.495 54.7507C11.2355 56.2341 12.4067 60.3634 13.0059 57.3129C13.605 54.2625 13.7261 52.3475 14.3041 51.7713C13.1589 55.9236 17.1737 59.9691 19.3242 61.4728C18.0904 60.138 18.1734 58.1972 18.3443 57.2158C18.5838 55.8403 18.8658 55.3506 20.5676 57.7245C22.2694 60.0983 28.7276 63.2741 31.7439 64.5652L44.9512 59.694C45.8117 62.3488 46.1892 64.3375 46.2704 65C47.733 63.0403 48.54 57.8823 48.7607 55.5482C49.6994 56.0622 49.4115 60.1963 49.1502 62.1992C50.9563 60.7434 54.7737 56.3733 56.0968 49.5587C56.9143 45.3478 55.6489 37.8714 56.4359 37.0367C57.8866 37.0367 55.5159 48.158 56.8499 51.7713C58.0143 54.9249 53.1722 62.8925 55.0281 62.1577C56.5128 61.5698 58.0634 58.8069 58.6531 57.4989C59.642 57.6283 59.6383 59.5834 59.5129 60.5447C62.2595 59.5354 63.4133 51.8479 63.6469 48.1303L66.3867 54.1112C69.3812 52.7431 67.5308 42.772 66.2313 37.9575C65.9541 20.8101 63.2514 25.4227 62.921 20.2462C62.6567 16.1049 58.2614 16.1325 56.0968 16.664C57.3924 11.3581 50.9592 9.14708 47.5807 8.70484C48.7451 7.48837 53.0961 6.90087 55.1261 6.75917Z" fill="#FDFAF2" stroke="#222222" stroke-width="2"/>
<ellipse cx="22.2966" cy="28.9973" rx="3.79147" ry="4.52526" fill="#222222"/>
<path d="M22.4462 31.461C25.1209 33.4516 28.887 33.0277 31.6732 32.5669C32.8991 32.1983 37.0487 31.6822 41.5958 32.5669C46.1429 33.4516 48.178 31.8297 50.6298 31.461C49.5599 33.4516 46.6768 35.2394 44.1135 35.3316C49.1955 35.9951 52.8468 43.5418 54.1842 45.1085C52.3119 44.0026 46.7882 40.6767 44.1135 40.861C47.5907 40.861 49.6283 47.3425 50.1855 48.817C48.8482 47.0476 44.2676 43.7178 42.4844 44.4551C45.9616 45.1186 46.0769 50.442 45.7426 52.3773C45.7426 51.0502 41.8382 46.8511 37.826 45.561C35.7085 45.561 32.704 45.7417 31.2289 45.1085C28.1188 43.7734 20.1215 52.3773 17.7519 52.9706C16.3658 53.3177 22.2988 46.3987 24.4164 45.1085C21.4544 45.561 16.5394 48.6934 14.7563 49.7071C15.0238 48.6012 19.66 42.6119 22.4462 40.861C22.4462 39.9763 17.7519 42.4383 14.0494 46.2952C14.7563 41.5483 22.1118 36.161 24.7866 35.3316C21.5769 34.6681 21.8889 32.4747 22.4462 31.461Z" fill="#FDFAF2"/>
<ellipse cx="44.4559" cy="28.4324" rx="3.74676" ry="4.25138" fill="#222222"/>
<path d="M40.6026 38.4774C38.7805 36.1609 33.3753 36.8973 31.8206 37.5662C27.601 38.8094 28.6779 43.0227 30.5211 45.0873C31.1945 45.8416 36.1233 47.0135 38.2862 45.8295C40.9145 44.3908 42.4246 40.7939 40.6026 38.4774Z" fill="#222222"/>
<path d="M33.4743 42.3462C33.7326 42.9485 33.5504 43.6053 33.0674 43.8131C32.5844 44.0209 31.9835 43.7011 31.7252 43.0987C31.4669 42.4964 31.6491 41.8396 32.1321 41.6318C32.6151 41.424 33.216 41.7439 33.4743 42.3462Z" fill="black"/>
<path d="M33.4743 42.3462C33.7326 42.9485 33.5504 43.6053 33.0674 43.8131C32.5844 44.0209 31.9835 43.7011 31.7252 43.0987C31.4669 42.4964 31.6491 41.8396 32.1321 41.6318C32.6151 41.424 33.216 41.7439 33.4743 42.3462Z" fill="black"/>
<path d="M33.4743 42.3462C33.7326 42.9485 33.5504 43.6053 33.0674 43.8131C32.5844 44.0209 31.9835 43.7011 31.7252 43.0987C31.4669 42.4964 31.6491 41.8396 32.1321 41.6318C32.6151 41.424 33.216 41.7439 33.4743 42.3462Z" fill="black"/>
<path d="M38.7931 41.8724C39.0514 42.4748 38.8693 43.1315 38.3863 43.3393C37.9033 43.5471 37.3023 43.2273 37.044 42.6249C36.7857 42.0226 36.9679 41.3658 37.4509 41.158C37.9339 40.9502 38.5348 41.2701 38.7931 41.8724Z" fill="black"/>
<path d="M38.7931 41.8724C39.0514 42.4748 38.8693 43.1315 38.3863 43.3393C37.9033 43.5471 37.3023 43.2273 37.044 42.6249C36.7857 42.0226 36.9679 41.3658 37.4509 41.158C37.9339 40.9502 38.5348 41.2701 38.7931 41.8724Z" fill="black"/>
<path d="M38.7931 41.8724C39.0514 42.4748 38.8693 43.1315 38.3863 43.3393C37.9033 43.5471 37.3023 43.2273 37.044 42.6249C36.7857 42.0226 36.9679 41.3658 37.4509 41.158C37.9339 40.9502 38.5348 41.2701 38.7931 41.8724Z" fill="black"/>
<path d="M29.4517 49.7767C31.6153 51.0663 35.7879 53.0353 41.3899 49.9874" stroke="#222222" stroke-width="2"/>
</svg>
